<svg xmlns="http://www.w3.org/2000/svg" width="24" height="23" fill="currentColor" viewBox="0 0 24 23">
  <path d="M3.273 0a1.09 1.09 0 0 0-1.091 1.09v8.92A3.275 3.275 0 0 0 0 13.09v6.546a1.09 1.09 0 0 0 1.09 1.091h1.092v1.091a1.09 1.09 0 1 0 2.182 0v-1.09h15.272v1.09a1.09 1.09 0 1 0 2.182 0v-1.09h1.091A1.09 1.09 0 0 0 24 19.635V13.09a3.275 3.275 0 0 0-2.182-3.082V1.091a1.09 1.09 0 1 0-2.182 0v1.09H16.12C15.532.9 13.934 0 12 0S8.468.9 7.88 2.182H4.365V1.09A1.09 1.09 0 0 0 3.273 0m18.545 18.546H2.182V13.09c0-.602.489-1.09 1.09-1.091h17.455c.602 0 1.09.489 1.091 1.09zm-5.454-8.728H7.636v-1.09c.001-.603.49-1.09 1.091-1.092h6.546c.602.001 1.09.49 1.09 1.091zM8.727 4.364a1.09 1.09 0 0 0 1.091-1.091c0-.435.87-1.091 2.182-1.091s2.182.656 2.182 1.09c0 .603.488 1.092 1.09 1.092h4.364v5.454h-1.09v-1.09a3.276 3.276 0 0 0-3.273-3.273H8.727a3.276 3.276 0 0 0-3.272 3.272v1.091H4.364V4.364z"/>
</svg>
