<svg width="40" height="40" viewBox="0 0 40 40" fill="none" xmlns="http://www.w3.org/2000/svg">
<path d="M23.1914 18.0698C24.0113 18.0698 24.6759 17.4052 24.6759 16.5853C24.6759 15.7655 24.0113 15.1009 23.1914 15.1009C22.3716 15.1009 21.707 15.7655 21.707 16.5853C21.707 17.4052 22.3716 18.0698 23.1914 18.0698Z" fill="white"/>
<path d="M23.1914 24.527C24.0113 24.527 24.6759 23.8624 24.6759 23.0426C24.6759 22.2227 24.0113 21.5581 23.1914 21.5581C22.3716 21.5581 21.707 22.2227 21.707 23.0426C21.707 23.8624 22.3716 24.527 23.1914 24.527Z" fill="white"/>
<path d="M29.6485 18.0698C30.4683 18.0698 31.1329 17.4052 31.1329 16.5853C31.1329 15.7655 30.4683 15.1009 29.6485 15.1009C28.8287 15.1009 28.1641 15.7655 28.1641 16.5853C28.1641 17.4052 28.8287 18.0698 29.6485 18.0698Z" fill="white"/>
<path d="M37.5166 19.5542C38.3364 19.5542 39.001 18.8896 39.001 18.0698V9.90548C39.001 6.63145 36.3374 3.96782 33.0634 3.96782H31.1336V2.48341C31.1336 1.66357 30.469 0.998993 29.6492 0.998993C28.8294 0.998993 28.1648 1.66357 28.1648 2.48341V3.96782H21.4107V2.48341C21.4107 1.66357 20.7461 0.998993 19.9263 0.998993C19.1064 0.998993 18.4419 1.66357 18.4419 2.48341V3.96782H11.762V2.48341C11.762 1.66357 11.0974 0.998993 10.2776 0.998993C9.45775 0.998993 8.79318 1.66357 8.79318 2.48341V3.96782H6.93766C3.66363 3.96782 1 6.63145 1 9.90548V33.0623C1 36.3364 3.66363 39 6.93766 39H25.6413C25.6918 39 25.7417 38.9975 25.791 38.9924C25.8399 38.9973 25.8889 39 25.9378 39C26.1375 39 26.3352 38.9598 26.5189 38.8817C26.7027 38.8035 26.8689 38.6891 27.0074 38.5452L38.5858 26.5215C38.7878 26.3117 38.9236 26.0472 38.9764 25.7608C39.0292 25.4744 38.9966 25.1789 38.8826 24.9109C38.7686 24.6429 38.5783 24.4144 38.3355 24.2537C38.0926 24.0931 37.8078 24.0074 37.5166 24.0074H30.3914C27.1174 24.0074 24.4537 26.671 24.4537 29.9451V36.0312H6.93766C5.30065 36.0312 3.96883 34.6994 3.96883 33.0623V9.90548C3.96883 8.26847 5.30065 6.93665 6.93766 6.93665H8.79318V8.42106C8.79318 9.24091 9.45775 9.90548 10.2776 9.90548C11.0974 9.90548 11.762 9.24091 11.762 8.42106V6.93665H18.4419V8.42106C18.4419 9.24091 19.1064 9.90548 19.9263 9.90548C20.7461 9.90548 21.4107 9.24091 21.4107 8.42106V6.93665H28.1648V8.42106C28.1648 9.24091 28.8294 9.90548 29.6492 9.90548C30.469 9.90548 31.1336 9.24091 31.1336 8.42106V6.93665H33.0634C34.7004 6.93665 36.0322 8.26847 36.0322 9.90548V18.0698C36.0322 18.8896 36.6968 19.5542 37.5166 19.5542ZM27.4226 29.9451C27.4226 28.3081 28.7544 26.9762 30.3914 26.9762H34.0264L27.4226 33.8341V29.9451Z" fill="white"/>
<path d="M10.2774 18.0698C11.0972 18.0698 11.7618 17.4052 11.7618 16.5853C11.7618 15.7655 11.0972 15.1009 10.2774 15.1009C9.45757 15.1009 8.79297 15.7655 8.79297 16.5853C8.79297 17.4052 9.45757 18.0698 10.2774 18.0698Z" fill="white"/>
<path d="M16.7344 24.527C17.5542 24.527 18.2188 23.8624 18.2188 23.0426C18.2188 22.2227 17.5542 21.5581 16.7344 21.5581C15.9146 21.5581 15.25 22.2227 15.25 23.0426C15.25 23.8624 15.9146 24.527 16.7344 24.527Z" fill="white"/>
<path d="M10.2774 30.9842C11.0972 30.9842 11.7618 30.3196 11.7618 29.4997C11.7618 28.6799 11.0972 28.0153 10.2774 28.0153C9.45757 28.0153 8.79297 28.6799 8.79297 29.4997C8.79297 30.3196 9.45757 30.9842 10.2774 30.9842Z" fill="white"/>
<path d="M10.2774 24.527C11.0972 24.527 11.7618 23.8624 11.7618 23.0426C11.7618 22.2227 11.0972 21.5581 10.2774 21.5581C9.45757 21.5581 8.79297 22.2227 8.79297 23.0426C8.79297 23.8624 9.45757 24.527 10.2774 24.527Z" fill="white"/>
<path d="M16.7344 30.9842C17.5542 30.9842 18.2188 30.3196 18.2188 29.4997C18.2188 28.6799 17.5542 28.0153 16.7344 28.0153C15.9146 28.0153 15.25 28.6799 15.25 29.4997C15.25 30.3196 15.9146 30.9842 16.7344 30.9842Z" fill="white"/>
<path d="M16.7344 18.0698C17.5542 18.0698 18.2188 17.4052 18.2188 16.5853C18.2188 15.7655 17.5542 15.1009 16.7344 15.1009C15.9146 15.1009 15.25 15.7655 15.25 16.5853C15.25 17.4052 15.9146 18.0698 16.7344 18.0698Z" fill="white"/>
</svg>
