<svg width="353" height="270" viewBox="0 0 353 270" fill="none" xmlns="http://www.w3.org/2000/svg">
<path d="M298.168 264.453C296.707 259.199 295.834 255.699 294.955 251.603C294.28 248.459 290.729 243.585 285.613 235.608C283.88 232.904 282.247 230.112 276.147 226.4C271.726 223.71 263.678 221.095 256.251 218.734C242.177 214.258 233.132 212.995 229.485 212.631C226.106 212.294 222.75 211.824 207.528 210.956C194.035 210.186 168.859 208.35 154.728 207.239C140.597 206.127 138.281 205.693 127.97 204.384C117.659 203.074 99.4235 200.903 86.411 198.844C73.3985 196.785 66.1621 194.904 59.6119 192.632C47.2035 188.328 38.8521 182.611 33.8896 178.376C30.3019 175.315 23.6686 169.914 15.5638 161.305C12.0084 157.528 10.4982 154.143 8.51808 148.378C6.53792 142.613 4.36698 134.363 3.03152 128.015C0.830298 117.551 0.814531 111.408 1.10399 107.691C1.43325 103.463 3.43718 99.5666 5.83837 95.1984C9.27811 88.9409 15.6865 81.4622 22.1862 74.888C25.7403 71.2932 30.313 69.0111 38.3214 65.8753C43.038 64.0285 49.5138 62.8843 58.4388 61.5598C67.3637 60.2353 78.6526 59.0774 86.9285 58.5533C100.104 57.7189 107.221 59.0467 111.666 60.3603C114.054 61.0658 116.835 61.3843 126.067 64.4302C135.299 67.4761 150.93 73.1206 159.995 76.5349C171.171 80.7442 175.779 83.5981 180.378 86.2997C187.117 90.2589 192.454 95.8826 195.75 99.8253C198.357 102.944 200.357 109.294 200.587 116.631C200.629 117.977 199.936 118.829 198.989 119.566C193.648 123.72 185.621 123.372 181.959 124.035C176.284 125.061 169.972 114.917 165.734 104.933C162.981 98.4489 163.964 88.6417 164.615 76.3989C164.968 69.7779 166.569 62.4194 167.891 56.6631C170.133 46.9032 172.871 40.8021 176.939 34.3287C179.747 29.861 185.059 23.6582 190.129 18.6409C195.199 13.6236 200.12 10.1501 206.273 7.6371C212.426 5.12408 219.663 3.67679 233.449 2.56939C247.236 1.46199 267.353 0.738337 281.408 1.08919C295.462 1.44005 302.843 2.88735 311.783 5.51441C320.723 8.14146 330.999 11.9044 338.753 15.4349C346.507 18.9655 351.428 22.1495 355.844 25.7436C360.261 29.3377 364.024 33.2454 368.133 39.3109C372.243 45.3764 376.585 53.4812 380.124 62.0707C383.663 70.6602 386.268 79.4887 387.828 85.3392C390.065 93.7338 390.413 104.294 390.487 117.366C390.531 125.091 387.659 134.275 382.85 147.112C380.493 153.404 377.172 158.792 371.916 165.822C366.66 172.852 359.279 181.247 354.68 186.15C348.754 192.469 342.073 198.18 334.547 205.851C327.631 212.899 321.28 221.157 318.061 225.332C315.218 229.019 313.965 233.735 311.481 237.176C309.47 239.96 307.825 242.945 306.652 246.094C305.254 249.846 303.439 252.453 301.683 256.396C299.637 259.769 297.589 262.102 296.35 264.291C295.69 265.321 294.966 266.19 293.782 268.839" stroke="#FFEDE2" stroke-width="2" stroke-linecap="round" stroke-dasharray="4 4"/>
</svg>
